<?xml version="1.0" encoding="utf-8"?>
<!-- Generator: Adobe Illustrator 24.0.0, SVG Export Plug-In . SVG Version: 6.00 Build 0)  -->
<svg version="1.1" xmlns="http://www.w3.org/2000/svg" xmlns:xlink="http://www.w3.org/1999/xlink" x="0px" y="0px"
	 viewBox="0 0 1467 1215" style="enable-background:new 0 0 1467 1215;" xml:space="preserve">
<style type="text/css">
	.st0{fill:#FFBF8F;}
	.st1{fill:#FFFFFF;}
</style>
<g id="Layer_1">
</g>
<g id="Layer_2">
	<rect width="1467" height="1215"/>
	<g>
		<g>
			<path class="st1" d="M674.9,702.9c-20.2,0-36.7,16.4-36.7,36.7c0,20.2,16.4,36.7,36.7,36.7c20.2,0,36.7-16.4,36.7-36.7
				C711.6,719.3,695.1,702.9,674.9,702.9z M674.9,761.2c-12,0-21.7-9.7-21.7-21.7c0-12,9.7-21.7,21.7-21.7c12,0,21.7,9.7,21.7,21.7
				C696.6,751.5,686.9,761.2,674.9,761.2z"/>
			<path class="st1" d="M797.6,761.2c-12,0-21.7-9.7-21.7-21.7c0-12,9.7-21.7,21.7-21.7c7.2,0,13.9,3.6,18,9.6l12.4-8.4
				c-6.8-10.1-18.2-16.2-30.4-16.2c-20.2,0-36.7,16.4-36.7,36.7c0,20.2,16.4,36.7,36.7,36.7c12.9,0,24.9-6.9,31.5-17.9l-12.9-7.7
				C812.3,757.2,805.2,761.2,797.6,761.2z"/>
			<polygon class="st1" points="738.6,677.6 723.7,677.6 723.7,773.3 738.6,773.3 738.6,717.9 754.6,717.9 754.6,702.9 738.6,702.9 
							"/>
			<path class="st1" d="M878.4,702.9c-10.6,0-18,5.6-22,9.6v-34.9h-15v66.4c0,0,0,0,0,0v29.3h15v-2h0v-29.4c0-16.5,9.6-24.1,19-24.1
				c9.4,0,15.1,7.6,15.1,17.1v38.4h15v-40.2C905.5,715.5,896.1,702.9,878.4,702.9z"/>
			<path class="st1" d="M598.4,702.9c-10.6,0-18,5.6-22,9.6V705h-15v38.9c0,0,0,0,0,0v29.3h15v-2h0v-29.4c0-16.5,9.6-24.1,19-24.1
				c9.4,0,15.1,7.6,15.1,17.1v38.4h15v-40.2C625.5,715.5,616.1,702.9,598.4,702.9z"/>
		</g>
		<g>
			<path class="st0" d="M826.5,616.5c-5.8,0-11.5-2.3-15.8-6.8L696.9,488.6c-8.7-9.2-19.1-6.1-22-4.9c-3,1.2-12.7,6-12.7,18.7v92.5
				c0,12-9.7,21.7-21.7,21.7c-12,0-21.7-9.7-21.7-21.7v-92.5c0-26.2,15.7-49.4,40.1-59c24.4-9.6,51.7-3.5,69.6,15.6L842.3,580
				c8.2,8.7,7.8,22.5-1,30.7C837.1,614.6,831.8,616.5,826.5,616.5z"/>
			<circle class="st0" cx="826.5" cy="460.5" r="21.7"/>
		</g>
	</g>
</g>
</svg>
