<?xml version="1.0" encoding="utf-8"?>
<!-- Generator: Adobe Illustrator 24.0.0, SVG Export Plug-In . SVG Version: 6.00 Build 0)  -->
<svg version="1.1" xmlns="http://www.w3.org/2000/svg" xmlns:xlink="http://www.w3.org/1999/xlink" x="0px" y="0px"
	 viewBox="0 0 1467 1215" style="enable-background:new 0 0 1467 1215;" xml:space="preserve">
<style type="text/css">
	.st0{fill:#FFBF8F;}
	.st1{fill:#FFFFFF;}
</style>
<g id="Layer_1">
</g>
<g id="Layer_2">
	<g>
		<path class="st0" d="M538.2,670c-3.7,0-7.3-1.5-10-4.3l-72-76.7c-5.5-5.9-12.1-3.9-14-3.1c-1.9,0.7-8,3.8-8,11.8v58.6
			c0,7.6-6.2,13.7-13.7,13.7s-13.7-6.2-13.7-13.7v-58.6c0-16.6,10-31.3,25.4-37.4c15.4-6.1,32.7-2.2,44.1,9.9l72,76.7
			c5.2,5.5,4.9,14.2-0.6,19.4C544.9,668.7,541.6,670,538.2,670z"/>
		<g>
			<path class="st1" d="M768.2,577.1c-25.6,0-46.4,20.8-46.4,46.4c0,25.6,20.8,46.4,46.4,46.4c25.6,0,46.4-20.8,46.4-46.4
				C814.7,597.9,793.8,577.1,768.2,577.1z M768.2,651c-15.1,0-27.5-12.3-27.5-27.5c0-15.1,12.3-27.5,27.5-27.5
				c15.1,0,27.5,12.3,27.5,27.5C795.7,638.7,783.4,651,768.2,651z"/>
			<path class="st1" d="M923.6,651c-15.1,0-27.5-12.3-27.5-27.5c0-15.1,12.3-27.5,27.5-27.5c9.1,0,17.7,4.5,22.8,12.1l15.7-10.6
				c-8.7-12.8-23-20.5-38.5-20.5c-25.6,0-46.4,20.8-46.4,46.4c0,25.6,20.8,46.4,46.4,46.4c16.3,0,31.6-8.7,39.9-22.7l-16.3-9.7
				C942.3,645.9,933.2,651,923.6,651z"/>
			<polygon class="st1" points="849,545 830,545 830,666.3 849,666.3 849,596.1 869.2,596.1 869.2,577.1 849,577.1 			"/>
			<path class="st1" d="M1026,577.1c-13.4,0-22.8,7.1-27.8,12.1V545h-19v84.1c0,0,0,0,0,0v37.2h19v-2.5h0v-37.3
				c0-20.9,12.1-30.5,24-30.5c11.9,0,19.2,9.7,19.2,21.6v48.7h19v-50.9C1060.3,593,1048.4,577.1,1026,577.1z"/>
			<path class="st1" d="M671.4,577.1c-13.4,0-22.8,7.1-27.8,12.1v-9.4h-19v49.3c0,0,0,0,0,0v37.2h19v-2.5h0v-37.3
				c0-20.9,12.1-30.5,24-30.5c11.9,0,19.2,9.7,19.2,21.6v48.7h19v-50.9C705.7,593,693.7,577.1,671.4,577.1z"/>
		</g>
		<circle class="st0" cx="538.2" cy="571.2" r="13.7"/>
	</g>
</g>
</svg>
