<svg id="Group_14_Copy" data-name="Group 14 Copy" xmlns="http://www.w3.org/2000/svg" viewBox="0 0 701 701">
  <defs>
    <style>
      .cls-1 {
        fill: #343434;
      }
    </style>
  </defs>
  <g id="Group_13" data-name="Group 13">
    <circle id="Oval" class="cls-1" cx="1.623" cy="1.623" r="1.623" transform="translate(0 0)"/>
    <circle id="Oval_Copy_132" data-name="Oval Copy 132" class="cls-1" cx="1.623" cy="1.623" r="1.623" transform="translate(0 372.136)"/>
    <circle id="Oval_Copy_68" data-name="Oval Copy 68" class="cls-1" cx="1.623" cy="1.623" r="1.623" transform="translate(372.136 0)"/>
    <circle id="Oval_Copy_133" data-name="Oval Copy 133" class="cls-1" cx="1.623" cy="1.623" r="1.623" transform="translate(372.136 372.136)"/>
    <circle id="Oval_Copy_36" data-name="Oval Copy 36" class="cls-1" cx="1.623" cy="1.623" r="1.623" transform="translate(0 186.068)"/>
    <circle id="Oval_Copy_134" data-name="Oval Copy 134" class="cls-1" cx="1.623" cy="1.623" r="1.623" transform="translate(0 558.204)"/>
    <circle id="Oval_Copy_69" data-name="Oval Copy 69" class="cls-1" cx="1.623" cy="1.623" r="1.623" transform="translate(372.136 186.068)"/>
    <circle id="Oval_Copy_135" data-name="Oval Copy 135" class="cls-1" cx="1.623" cy="1.623" r="1.623" transform="translate(372.136 558.204)"/>
    <circle id="Oval_Copy_20" data-name="Oval Copy 20" class="cls-1" cx="1.623" cy="1.623" r="1.623" transform="translate(186.068 0)"/>
    <circle id="Oval_Copy_136" data-name="Oval Copy 136" class="cls-1" cx="1.623" cy="1.623" r="1.623" transform="translate(186.068 372.136)"/>
    <circle id="Oval_Copy_70" data-name="Oval Copy 70" class="cls-1" cx="1.623" cy="1.623" r="1.623" transform="translate(558.204 0)"/>
    <circle id="Oval_Copy_137" data-name="Oval Copy 137" class="cls-1" cx="1.623" cy="1.623" r="1.623" transform="translate(558.204 372.136)"/>
    <circle id="Oval_Copy_37" data-name="Oval Copy 37" class="cls-1" cx="1.623" cy="1.623" r="1.623" transform="translate(186.068 186.068)"/>
    <circle id="Oval_Copy_138" data-name="Oval Copy 138" class="cls-1" cx="1.623" cy="1.623" r="1.623" transform="translate(186.068 558.204)"/>
    <circle id="Oval_Copy_71" data-name="Oval Copy 71" class="cls-1" cx="1.623" cy="1.623" r="1.623" transform="translate(558.204 186.068)"/>
    <circle id="Oval_Copy_139" data-name="Oval Copy 139" class="cls-1" cx="1.623" cy="1.623" r="1.623" transform="translate(558.204 558.204)"/>
    <circle id="Oval_Copy_12" data-name="Oval Copy 12" class="cls-1" cx="1.623" cy="1.623" r="1.623" transform="translate(93.034 0)"/>
    <circle id="Oval_Copy_140" data-name="Oval Copy 140" class="cls-1" cx="1.623" cy="1.623" r="1.623" transform="translate(93.034 372.136)"/>
    <circle id="Oval_Copy_72" data-name="Oval Copy 72" class="cls-1" cx="1.623" cy="1.623" r="1.623" transform="translate(465.17 0)"/>
    <circle id="Oval_Copy_141" data-name="Oval Copy 141" class="cls-1" cx="1.623" cy="1.623" r="1.623" transform="translate(465.17 372.136)"/>
    <circle id="Oval_Copy_38" data-name="Oval Copy 38" class="cls-1" cx="1.623" cy="1.623" r="1.623" transform="translate(93.034 186.068)"/>
    <circle id="Oval_Copy_142" data-name="Oval Copy 142" class="cls-1" cx="1.623" cy="1.623" r="1.623" transform="translate(93.034 558.204)"/>
    <circle id="Oval_Copy_73" data-name="Oval Copy 73" class="cls-1" cx="1.623" cy="1.623" r="1.623" transform="translate(465.17 186.068)"/>
    <circle id="Oval_Copy_143" data-name="Oval Copy 143" class="cls-1" cx="1.623" cy="1.623" r="1.623" transform="translate(465.17 558.204)"/>
    <circle id="Oval_Copy_21" data-name="Oval Copy 21" class="cls-1" cx="1.623" cy="1.623" r="1.623" transform="translate(279.102 0)"/>
    <circle id="Oval_Copy_144" data-name="Oval Copy 144" class="cls-1" cx="1.623" cy="1.623" r="1.623" transform="translate(279.102 372.136)"/>
    <circle id="Oval_Copy_74" data-name="Oval Copy 74" class="cls-1" cx="1.623" cy="1.623" r="1.623" transform="translate(651.238 0)"/>
    <circle id="Oval_Copy_145" data-name="Oval Copy 145" class="cls-1" cx="1.623" cy="1.623" r="1.623" transform="translate(651.238 372.136)"/>
    <circle id="Oval_Copy_39" data-name="Oval Copy 39" class="cls-1" cx="1.623" cy="1.623" r="1.623" transform="translate(279.102 186.068)"/>
    <circle id="Oval_Copy_146" data-name="Oval Copy 146" class="cls-1" cx="1.623" cy="1.623" r="1.623" transform="translate(279.102 558.204)"/>
    <circle id="Oval_Copy_75" data-name="Oval Copy 75" class="cls-1" cx="1.623" cy="1.623" r="1.623" transform="translate(651.238 186.068)"/>
    <circle id="Oval_Copy_147" data-name="Oval Copy 147" class="cls-1" cx="1.623" cy="1.623" r="1.623" transform="translate(651.238 558.204)"/>
    <circle id="Oval_Copy_8" data-name="Oval Copy 8" class="cls-1" cx="1.623" cy="1.623" r="1.623" transform="translate(46.517 0)"/>
    <circle id="Oval_Copy_148" data-name="Oval Copy 148" class="cls-1" cx="1.623" cy="1.623" r="1.623" transform="translate(46.517 372.136)"/>
    <circle id="Oval_Copy_76" data-name="Oval Copy 76" class="cls-1" cx="1.623" cy="1.623" r="1.623" transform="translate(418.653 0)"/>
    <circle id="Oval_Copy_149" data-name="Oval Copy 149" class="cls-1" cx="1.623" cy="1.623" r="1.623" transform="translate(418.653 372.136)"/>
    <circle id="Oval_Copy_40" data-name="Oval Copy 40" class="cls-1" cx="1.623" cy="1.623" r="1.623" transform="translate(46.517 186.068)"/>
    <circle id="Oval_Copy_150" data-name="Oval Copy 150" class="cls-1" cx="1.623" cy="1.623" r="1.623" transform="translate(46.517 558.204)"/>
    <circle id="Oval_Copy_77" data-name="Oval Copy 77" class="cls-1" cx="1.623" cy="1.623" r="1.623" transform="translate(418.653 186.068)"/>
    <circle id="Oval_Copy_151" data-name="Oval Copy 151" class="cls-1" cx="1.623" cy="1.623" r="1.623" transform="translate(418.653 558.204)"/>
    <circle id="Oval_Copy_22" data-name="Oval Copy 22" class="cls-1" cx="1.623" cy="1.623" r="1.623" transform="translate(232.585 0)"/>
    <circle id="Oval_Copy_152" data-name="Oval Copy 152" class="cls-1" cx="1.623" cy="1.623" r="1.623" transform="translate(232.585 372.136)"/>
    <circle id="Oval_Copy_78" data-name="Oval Copy 78" class="cls-1" cx="1.623" cy="1.623" r="1.623" transform="translate(604.721 0)"/>
    <circle id="Oval_Copy_153" data-name="Oval Copy 153" class="cls-1" cx="1.623" cy="1.623" r="1.623" transform="translate(604.721 372.136)"/>
    <circle id="Oval_Copy_41" data-name="Oval Copy 41" class="cls-1" cx="1.623" cy="1.623" r="1.623" transform="translate(232.585 186.068)"/>
    <circle id="Oval_Copy_154" data-name="Oval Copy 154" class="cls-1" cx="1.623" cy="1.623" r="1.623" transform="translate(232.585 558.204)"/>
    <circle id="Oval_Copy_79" data-name="Oval Copy 79" class="cls-1" cx="1.623" cy="1.623" r="1.623" transform="translate(604.721 186.068)"/>
    <circle id="Oval_Copy_155" data-name="Oval Copy 155" class="cls-1" cx="1.623" cy="1.623" r="1.623" transform="translate(604.721 558.204)"/>
    <circle id="Oval_Copy_13" data-name="Oval Copy 13" class="cls-1" cx="1.623" cy="1.623" r="1.623" transform="translate(139.551 0)"/>
    <circle id="Oval_Copy_156" data-name="Oval Copy 156" class="cls-1" cx="1.623" cy="1.623" r="1.623" transform="translate(139.551 372.136)"/>
    <circle id="Oval_Copy_80" data-name="Oval Copy 80" class="cls-1" cx="1.623" cy="1.623" r="1.623" transform="translate(511.687 0)"/>
    <circle id="Oval_Copy_157" data-name="Oval Copy 157" class="cls-1" cx="1.623" cy="1.623" r="1.623" transform="translate(511.687 372.136)"/>
    <circle id="Oval_Copy_42" data-name="Oval Copy 42" class="cls-1" cx="1.623" cy="1.623" r="1.623" transform="translate(139.551 186.068)"/>
    <circle id="Oval_Copy_158" data-name="Oval Copy 158" class="cls-1" cx="1.623" cy="1.623" r="1.623" transform="translate(139.551 558.204)"/>
    <circle id="Oval_Copy_81" data-name="Oval Copy 81" class="cls-1" cx="1.623" cy="1.623" r="1.623" transform="translate(511.687 186.068)"/>
    <circle id="Oval_Copy_159" data-name="Oval Copy 159" class="cls-1" cx="1.623" cy="1.623" r="1.623" transform="translate(511.687 558.204)"/>
    <circle id="Oval_Copy_23" data-name="Oval Copy 23" class="cls-1" cx="1.623" cy="1.623" r="1.623" transform="translate(325.619 0)"/>
    <circle id="Oval_Copy_160" data-name="Oval Copy 160" class="cls-1" cx="1.623" cy="1.623" r="1.623" transform="translate(325.619 372.136)"/>
    <circle id="Oval_Copy_82" data-name="Oval Copy 82" class="cls-1" cx="1.623" cy="1.623" r="1.623" transform="translate(697.755 0)"/>
    <circle id="Oval_Copy_161" data-name="Oval Copy 161" class="cls-1" cx="1.623" cy="1.623" r="1.623" transform="translate(697.755 372.136)"/>
    <circle id="Oval_Copy_43" data-name="Oval Copy 43" class="cls-1" cx="1.623" cy="1.623" r="1.623" transform="translate(325.619 186.068)"/>
    <circle id="Oval_Copy_162" data-name="Oval Copy 162" class="cls-1" cx="1.623" cy="1.623" r="1.623" transform="translate(325.619 558.204)"/>
    <circle id="Oval_Copy_83" data-name="Oval Copy 83" class="cls-1" cx="1.623" cy="1.623" r="1.623" transform="translate(697.755 186.068)"/>
    <circle id="Oval_Copy_163" data-name="Oval Copy 163" class="cls-1" cx="1.623" cy="1.623" r="1.623" transform="translate(697.755 558.204)"/>
    <circle id="Oval_Copy_5" data-name="Oval Copy 5" class="cls-1" cx="1.623" cy="1.623" r="1.623" transform="translate(0 46.517)"/>
    <circle id="Oval_Copy_164" data-name="Oval Copy 164" class="cls-1" cx="1.623" cy="1.623" r="1.623" transform="translate(0 418.653)"/>
    <circle id="Oval_Copy_84" data-name="Oval Copy 84" class="cls-1" cx="1.623" cy="1.623" r="1.623" transform="translate(372.136 46.517)"/>
    <circle id="Oval_Copy_165" data-name="Oval Copy 165" class="cls-1" cx="1.623" cy="1.623" r="1.623" transform="translate(372.136 418.653)"/>
    <circle id="Oval_Copy_44" data-name="Oval Copy 44" class="cls-1" cx="1.623" cy="1.623" r="1.623" transform="translate(0 232.585)"/>
    <circle id="Oval_Copy_166" data-name="Oval Copy 166" class="cls-1" cx="1.623" cy="1.623" r="1.623" transform="translate(0 604.721)"/>
    <circle id="Oval_Copy_85" data-name="Oval Copy 85" class="cls-1" cx="1.623" cy="1.623" r="1.623" transform="translate(372.136 232.585)"/>
    <circle id="Oval_Copy_167" data-name="Oval Copy 167" class="cls-1" cx="1.623" cy="1.623" r="1.623" transform="translate(372.136 604.721)"/>
    <circle id="Oval_Copy_24" data-name="Oval Copy 24" class="cls-1" cx="1.623" cy="1.623" r="1.623" transform="translate(186.068 46.517)"/>
    <circle id="Oval_Copy_168" data-name="Oval Copy 168" class="cls-1" cx="1.623" cy="1.623" r="1.623" transform="translate(186.068 418.653)"/>
    <circle id="Oval_Copy_86" data-name="Oval Copy 86" class="cls-1" cx="1.623" cy="1.623" r="1.623" transform="translate(558.204 46.517)"/>
    <circle id="Oval_Copy_169" data-name="Oval Copy 169" class="cls-1" cx="1.623" cy="1.623" r="1.623" transform="translate(558.204 418.653)"/>
    <circle id="Oval_Copy_45" data-name="Oval Copy 45" class="cls-1" cx="1.623" cy="1.623" r="1.623" transform="translate(186.068 232.585)"/>
    <circle id="Oval_Copy_170" data-name="Oval Copy 170" class="cls-1" cx="1.623" cy="1.623" r="1.623" transform="translate(186.068 604.721)"/>
    <circle id="Oval_Copy_87" data-name="Oval Copy 87" class="cls-1" cx="1.623" cy="1.623" r="1.623" transform="translate(558.204 232.585)"/>
    <circle id="Oval_Copy_171" data-name="Oval Copy 171" class="cls-1" cx="1.623" cy="1.623" r="1.623" transform="translate(558.204 604.721)"/>
    <circle id="Oval_Copy_14" data-name="Oval Copy 14" class="cls-1" cx="1.623" cy="1.623" r="1.623" transform="translate(93.034 46.517)"/>
    <circle id="Oval_Copy_172" data-name="Oval Copy 172" class="cls-1" cx="1.623" cy="1.623" r="1.623" transform="translate(93.034 418.653)"/>
    <circle id="Oval_Copy_88" data-name="Oval Copy 88" class="cls-1" cx="1.623" cy="1.623" r="1.623" transform="translate(465.17 46.517)"/>
    <circle id="Oval_Copy_173" data-name="Oval Copy 173" class="cls-1" cx="1.623" cy="1.623" r="1.623" transform="translate(465.17 418.653)"/>
    <circle id="Oval_Copy_46" data-name="Oval Copy 46" class="cls-1" cx="1.623" cy="1.623" r="1.623" transform="translate(93.034 232.585)"/>
    <circle id="Oval_Copy_174" data-name="Oval Copy 174" class="cls-1" cx="1.623" cy="1.623" r="1.623" transform="translate(93.034 604.721)"/>
    <circle id="Oval_Copy_89" data-name="Oval Copy 89" class="cls-1" cx="1.623" cy="1.623" r="1.623" transform="translate(465.17 232.585)"/>
    <circle id="Oval_Copy_175" data-name="Oval Copy 175" class="cls-1" cx="1.623" cy="1.623" r="1.623" transform="translate(465.17 604.721)"/>
    <circle id="Oval_Copy_25" data-name="Oval Copy 25" class="cls-1" cx="1.623" cy="1.623" r="1.623" transform="translate(279.102 46.517)"/>
    <circle id="Oval_Copy_176" data-name="Oval Copy 176" class="cls-1" cx="1.623" cy="1.623" r="1.623" transform="translate(279.102 418.653)"/>
    <circle id="Oval_Copy_90" data-name="Oval Copy 90" class="cls-1" cx="1.623" cy="1.623" r="1.623" transform="translate(651.238 46.517)"/>
    <circle id="Oval_Copy_177" data-name="Oval Copy 177" class="cls-1" cx="1.623" cy="1.623" r="1.623" transform="translate(651.238 418.653)"/>
    <circle id="Oval_Copy_47" data-name="Oval Copy 47" class="cls-1" cx="1.623" cy="1.623" r="1.623" transform="translate(279.102 232.585)"/>
    <circle id="Oval_Copy_178" data-name="Oval Copy 178" class="cls-1" cx="1.623" cy="1.623" r="1.623" transform="translate(279.102 604.721)"/>
    <circle id="Oval_Copy_91" data-name="Oval Copy 91" class="cls-1" cx="1.623" cy="1.623" r="1.623" transform="translate(651.238 232.585)"/>
    <circle id="Oval_Copy_179" data-name="Oval Copy 179" class="cls-1" cx="1.623" cy="1.623" r="1.623" transform="translate(651.238 604.721)"/>
    <circle id="Oval_Copy_9" data-name="Oval Copy 9" class="cls-1" cx="1.623" cy="1.623" r="1.623" transform="translate(46.517 46.517)"/>
    <circle id="Oval_Copy_180" data-name="Oval Copy 180" class="cls-1" cx="1.623" cy="1.623" r="1.623" transform="translate(46.517 418.653)"/>
    <circle id="Oval_Copy_92" data-name="Oval Copy 92" class="cls-1" cx="1.623" cy="1.623" r="1.623" transform="translate(418.653 46.517)"/>
    <circle id="Oval_Copy_181" data-name="Oval Copy 181" class="cls-1" cx="1.623" cy="1.623" r="1.623" transform="translate(418.653 418.653)"/>
    <circle id="Oval_Copy_48" data-name="Oval Copy 48" class="cls-1" cx="1.623" cy="1.623" r="1.623" transform="translate(46.517 232.585)"/>
    <circle id="Oval_Copy_182" data-name="Oval Copy 182" class="cls-1" cx="1.623" cy="1.623" r="1.623" transform="translate(46.517 604.721)"/>
    <circle id="Oval_Copy_93" data-name="Oval Copy 93" class="cls-1" cx="1.623" cy="1.623" r="1.623" transform="translate(418.653 232.585)"/>
    <circle id="Oval_Copy_183" data-name="Oval Copy 183" class="cls-1" cx="1.623" cy="1.623" r="1.623" transform="translate(418.653 604.721)"/>
    <circle id="Oval_Copy_26" data-name="Oval Copy 26" class="cls-1" cx="1.623" cy="1.623" r="1.623" transform="translate(232.585 46.517)"/>
    <circle id="Oval_Copy_184" data-name="Oval Copy 184" class="cls-1" cx="1.623" cy="1.623" r="1.623" transform="translate(232.585 418.653)"/>
    <circle id="Oval_Copy_94" data-name="Oval Copy 94" class="cls-1" cx="1.623" cy="1.623" r="1.623" transform="translate(604.721 46.517)"/>
    <circle id="Oval_Copy_185" data-name="Oval Copy 185" class="cls-1" cx="1.623" cy="1.623" r="1.623" transform="translate(604.721 418.653)"/>
    <circle id="Oval_Copy_49" data-name="Oval Copy 49" class="cls-1" cx="1.623" cy="1.623" r="1.623" transform="translate(232.585 232.585)"/>
    <circle id="Oval_Copy_186" data-name="Oval Copy 186" class="cls-1" cx="1.623" cy="1.623" r="1.623" transform="translate(232.585 604.721)"/>
    <circle id="Oval_Copy_95" data-name="Oval Copy 95" class="cls-1" cx="1.623" cy="1.623" r="1.623" transform="translate(604.721 232.585)"/>
    <circle id="Oval_Copy_187" data-name="Oval Copy 187" class="cls-1" cx="1.623" cy="1.623" r="1.623" transform="translate(604.721 604.721)"/>
    <circle id="Oval_Copy_15" data-name="Oval Copy 15" class="cls-1" cx="1.623" cy="1.623" r="1.623" transform="translate(139.551 46.517)"/>
    <circle id="Oval_Copy_188" data-name="Oval Copy 188" class="cls-1" cx="1.623" cy="1.623" r="1.623" transform="translate(139.551 418.653)"/>
    <circle id="Oval_Copy_96" data-name="Oval Copy 96" class="cls-1" cx="1.623" cy="1.623" r="1.623" transform="translate(511.687 46.517)"/>
    <circle id="Oval_Copy_189" data-name="Oval Copy 189" class="cls-1" cx="1.623" cy="1.623" r="1.623" transform="translate(511.687 418.653)"/>
    <circle id="Oval_Copy_50" data-name="Oval Copy 50" class="cls-1" cx="1.623" cy="1.623" r="1.623" transform="translate(139.551 232.585)"/>
    <circle id="Oval_Copy_190" data-name="Oval Copy 190" class="cls-1" cx="1.623" cy="1.623" r="1.623" transform="translate(139.551 604.721)"/>
    <circle id="Oval_Copy_97" data-name="Oval Copy 97" class="cls-1" cx="1.623" cy="1.623" r="1.623" transform="translate(511.687 232.585)"/>
    <circle id="Oval_Copy_191" data-name="Oval Copy 191" class="cls-1" cx="1.623" cy="1.623" r="1.623" transform="translate(511.687 604.721)"/>
    <circle id="Oval_Copy_27" data-name="Oval Copy 27" class="cls-1" cx="1.623" cy="1.623" r="1.623" transform="translate(325.619 46.517)"/>
    <circle id="Oval_Copy_192" data-name="Oval Copy 192" class="cls-1" cx="1.623" cy="1.623" r="1.623" transform="translate(325.619 418.653)"/>
    <circle id="Oval_Copy_98" data-name="Oval Copy 98" class="cls-1" cx="1.623" cy="1.623" r="1.623" transform="translate(697.755 46.517)"/>
    <circle id="Oval_Copy_193" data-name="Oval Copy 193" class="cls-1" cx="1.623" cy="1.623" r="1.623" transform="translate(697.755 418.653)"/>
    <circle id="Oval_Copy_51" data-name="Oval Copy 51" class="cls-1" cx="1.623" cy="1.623" r="1.623" transform="translate(325.619 232.585)"/>
    <circle id="Oval_Copy_194" data-name="Oval Copy 194" class="cls-1" cx="1.623" cy="1.623" r="1.623" transform="translate(325.619 604.721)"/>
    <circle id="Oval_Copy_99" data-name="Oval Copy 99" class="cls-1" cx="1.623" cy="1.623" r="1.623" transform="translate(697.755 232.585)"/>
    <circle id="Oval_Copy_195" data-name="Oval Copy 195" class="cls-1" cx="1.623" cy="1.623" r="1.623" transform="translate(697.755 604.721)"/>
    <circle id="Oval_Copy_6" data-name="Oval Copy 6" class="cls-1" cx="1.623" cy="1.623" r="1.623" transform="translate(0 93.034)"/>
    <circle id="Oval_Copy_196" data-name="Oval Copy 196" class="cls-1" cx="1.623" cy="1.623" r="1.623" transform="translate(0 465.17)"/>
    <circle id="Oval_Copy_100" data-name="Oval Copy 100" class="cls-1" cx="1.623" cy="1.623" r="1.623" transform="translate(372.136 93.034)"/>
    <circle id="Oval_Copy_197" data-name="Oval Copy 197" class="cls-1" cx="1.623" cy="1.623" r="1.623" transform="translate(372.136 465.17)"/>
    <circle id="Oval_Copy_52" data-name="Oval Copy 52" class="cls-1" cx="1.623" cy="1.623" r="1.623" transform="translate(0 279.102)"/>
    <circle id="Oval_Copy_198" data-name="Oval Copy 198" class="cls-1" cx="1.623" cy="1.623" r="1.623" transform="translate(0 651.238)"/>
    <circle id="Oval_Copy_101" data-name="Oval Copy 101" class="cls-1" cx="1.623" cy="1.623" r="1.623" transform="translate(372.136 279.102)"/>
    <circle id="Oval_Copy_199" data-name="Oval Copy 199" class="cls-1" cx="1.623" cy="1.623" r="1.623" transform="translate(372.136 651.238)"/>
    <circle id="Oval_Copy_28" data-name="Oval Copy 28" class="cls-1" cx="1.623" cy="1.623" r="1.623" transform="translate(186.068 93.034)"/>
    <circle id="Oval_Copy_200" data-name="Oval Copy 200" class="cls-1" cx="1.623" cy="1.623" r="1.623" transform="translate(186.068 465.17)"/>
    <circle id="Oval_Copy_102" data-name="Oval Copy 102" class="cls-1" cx="1.623" cy="1.623" r="1.623" transform="translate(558.204 93.034)"/>
    <circle id="Oval_Copy_201" data-name="Oval Copy 201" class="cls-1" cx="1.623" cy="1.623" r="1.623" transform="translate(558.204 465.17)"/>
    <circle id="Oval_Copy_53" data-name="Oval Copy 53" class="cls-1" cx="1.623" cy="1.623" r="1.623" transform="translate(186.068 279.102)"/>
    <circle id="Oval_Copy_202" data-name="Oval Copy 202" class="cls-1" cx="1.623" cy="1.623" r="1.623" transform="translate(186.068 651.238)"/>
    <circle id="Oval_Copy_103" data-name="Oval Copy 103" class="cls-1" cx="1.623" cy="1.623" r="1.623" transform="translate(558.204 279.102)"/>
    <circle id="Oval_Copy_203" data-name="Oval Copy 203" class="cls-1" cx="1.623" cy="1.623" r="1.623" transform="translate(558.204 651.238)"/>
    <circle id="Oval_Copy_16" data-name="Oval Copy 16" class="cls-1" cx="1.623" cy="1.623" r="1.623" transform="translate(93.034 93.034)"/>
    <circle id="Oval_Copy_204" data-name="Oval Copy 204" class="cls-1" cx="1.623" cy="1.623" r="1.623" transform="translate(93.034 465.17)"/>
    <circle id="Oval_Copy_104" data-name="Oval Copy 104" class="cls-1" cx="1.623" cy="1.623" r="1.623" transform="translate(465.17 93.034)"/>
    <circle id="Oval_Copy_205" data-name="Oval Copy 205" class="cls-1" cx="1.623" cy="1.623" r="1.623" transform="translate(465.17 465.17)"/>
    <circle id="Oval_Copy_54" data-name="Oval Copy 54" class="cls-1" cx="1.623" cy="1.623" r="1.623" transform="translate(93.034 279.102)"/>
    <circle id="Oval_Copy_206" data-name="Oval Copy 206" class="cls-1" cx="1.623" cy="1.623" r="1.623" transform="translate(93.034 651.238)"/>
    <circle id="Oval_Copy_105" data-name="Oval Copy 105" class="cls-1" cx="1.623" cy="1.623" r="1.623" transform="translate(465.17 279.102)"/>
    <circle id="Oval_Copy_207" data-name="Oval Copy 207" class="cls-1" cx="1.623" cy="1.623" r="1.623" transform="translate(465.17 651.238)"/>
    <circle id="Oval_Copy_29" data-name="Oval Copy 29" class="cls-1" cx="1.623" cy="1.623" r="1.623" transform="translate(279.102 93.034)"/>
    <circle id="Oval_Copy_208" data-name="Oval Copy 208" class="cls-1" cx="1.623" cy="1.623" r="1.623" transform="translate(279.102 465.17)"/>
    <circle id="Oval_Copy_106" data-name="Oval Copy 106" class="cls-1" cx="1.623" cy="1.623" r="1.623" transform="translate(651.238 93.034)"/>
    <circle id="Oval_Copy_209" data-name="Oval Copy 209" class="cls-1" cx="1.623" cy="1.623" r="1.623" transform="translate(651.238 465.17)"/>
    <circle id="Oval_Copy_55" data-name="Oval Copy 55" class="cls-1" cx="1.623" cy="1.623" r="1.623" transform="translate(279.102 279.102)"/>
    <circle id="Oval_Copy_210" data-name="Oval Copy 210" class="cls-1" cx="1.623" cy="1.623" r="1.623" transform="translate(279.102 651.238)"/>
    <circle id="Oval_Copy_107" data-name="Oval Copy 107" class="cls-1" cx="1.623" cy="1.623" r="1.623" transform="translate(651.238 279.102)"/>
    <circle id="Oval_Copy_211" data-name="Oval Copy 211" class="cls-1" cx="1.623" cy="1.623" r="1.623" transform="translate(651.238 651.238)"/>
    <circle id="Oval_Copy_10" data-name="Oval Copy 10" class="cls-1" cx="1.623" cy="1.623" r="1.623" transform="translate(46.517 93.034)"/>
    <circle id="Oval_Copy_212" data-name="Oval Copy 212" class="cls-1" cx="1.623" cy="1.623" r="1.623" transform="translate(46.517 465.17)"/>
    <circle id="Oval_Copy_108" data-name="Oval Copy 108" class="cls-1" cx="1.623" cy="1.623" r="1.623" transform="translate(418.653 93.034)"/>
    <circle id="Oval_Copy_213" data-name="Oval Copy 213" class="cls-1" cx="1.623" cy="1.623" r="1.623" transform="translate(418.653 465.17)"/>
    <circle id="Oval_Copy_56" data-name="Oval Copy 56" class="cls-1" cx="1.623" cy="1.623" r="1.623" transform="translate(46.517 279.102)"/>
    <circle id="Oval_Copy_214" data-name="Oval Copy 214" class="cls-1" cx="1.623" cy="1.623" r="1.623" transform="translate(46.517 651.238)"/>
    <circle id="Oval_Copy_109" data-name="Oval Copy 109" class="cls-1" cx="1.623" cy="1.623" r="1.623" transform="translate(418.653 279.102)"/>
    <circle id="Oval_Copy_215" data-name="Oval Copy 215" class="cls-1" cx="1.623" cy="1.623" r="1.623" transform="translate(418.653 651.238)"/>
    <circle id="Oval_Copy_30" data-name="Oval Copy 30" class="cls-1" cx="1.623" cy="1.623" r="1.623" transform="translate(232.585 93.034)"/>
    <circle id="Oval_Copy_216" data-name="Oval Copy 216" class="cls-1" cx="1.623" cy="1.623" r="1.623" transform="translate(232.585 465.17)"/>
    <circle id="Oval_Copy_110" data-name="Oval Copy 110" class="cls-1" cx="1.623" cy="1.623" r="1.623" transform="translate(604.721 93.034)"/>
    <circle id="Oval_Copy_217" data-name="Oval Copy 217" class="cls-1" cx="1.623" cy="1.623" r="1.623" transform="translate(604.721 465.17)"/>
    <circle id="Oval_Copy_57" data-name="Oval Copy 57" class="cls-1" cx="1.623" cy="1.623" r="1.623" transform="translate(232.585 279.102)"/>
    <circle id="Oval_Copy_218" data-name="Oval Copy 218" class="cls-1" cx="1.623" cy="1.623" r="1.623" transform="translate(232.585 651.238)"/>
    <circle id="Oval_Copy_111" data-name="Oval Copy 111" class="cls-1" cx="1.623" cy="1.623" r="1.623" transform="translate(604.721 279.102)"/>
    <circle id="Oval_Copy_219" data-name="Oval Copy 219" class="cls-1" cx="1.623" cy="1.623" r="1.623" transform="translate(604.721 651.238)"/>
    <circle id="Oval_Copy_17" data-name="Oval Copy 17" class="cls-1" cx="1.623" cy="1.623" r="1.623" transform="translate(139.551 93.034)"/>
    <circle id="Oval_Copy_220" data-name="Oval Copy 220" class="cls-1" cx="1.623" cy="1.623" r="1.623" transform="translate(139.551 465.17)"/>
    <circle id="Oval_Copy_112" data-name="Oval Copy 112" class="cls-1" cx="1.623" cy="1.623" r="1.623" transform="translate(511.687 93.034)"/>
    <circle id="Oval_Copy_221" data-name="Oval Copy 221" class="cls-1" cx="1.623" cy="1.623" r="1.623" transform="translate(511.687 465.17)"/>
    <circle id="Oval_Copy_58" data-name="Oval Copy 58" class="cls-1" cx="1.623" cy="1.623" r="1.623" transform="translate(139.551 279.102)"/>
    <circle id="Oval_Copy_222" data-name="Oval Copy 222" class="cls-1" cx="1.623" cy="1.623" r="1.623" transform="translate(139.551 651.238)"/>
    <circle id="Oval_Copy_113" data-name="Oval Copy 113" class="cls-1" cx="1.623" cy="1.623" r="1.623" transform="translate(511.687 279.102)"/>
    <circle id="Oval_Copy_223" data-name="Oval Copy 223" class="cls-1" cx="1.623" cy="1.623" r="1.623" transform="translate(511.687 651.238)"/>
    <circle id="Oval_Copy_31" data-name="Oval Copy 31" class="cls-1" cx="1.623" cy="1.623" r="1.623" transform="translate(325.619 93.034)"/>
    <circle id="Oval_Copy_224" data-name="Oval Copy 224" class="cls-1" cx="1.623" cy="1.623" r="1.623" transform="translate(325.619 465.17)"/>
    <circle id="Oval_Copy_114" data-name="Oval Copy 114" class="cls-1" cx="1.623" cy="1.623" r="1.623" transform="translate(697.755 93.034)"/>
    <circle id="Oval_Copy_225" data-name="Oval Copy 225" class="cls-1" cx="1.623" cy="1.623" r="1.623" transform="translate(697.755 465.17)"/>
    <circle id="Oval_Copy_59" data-name="Oval Copy 59" class="cls-1" cx="1.623" cy="1.623" r="1.623" transform="translate(325.619 279.102)"/>
    <circle id="Oval_Copy_226" data-name="Oval Copy 226" class="cls-1" cx="1.623" cy="1.623" r="1.623" transform="translate(325.619 651.238)"/>
    <circle id="Oval_Copy_115" data-name="Oval Copy 115" class="cls-1" cx="1.623" cy="1.623" r="1.623" transform="translate(697.755 279.102)"/>
    <circle id="Oval_Copy_227" data-name="Oval Copy 227" class="cls-1" cx="1.623" cy="1.623" r="1.623" transform="translate(697.755 651.238)"/>
    <circle id="Oval_Copy_7" data-name="Oval Copy 7" class="cls-1" cx="1.623" cy="1.623" r="1.623" transform="translate(0 139.551)"/>
    <circle id="Oval_Copy_228" data-name="Oval Copy 228" class="cls-1" cx="1.623" cy="1.623" r="1.623" transform="translate(0 511.687)"/>
    <circle id="Oval_Copy_116" data-name="Oval Copy 116" class="cls-1" cx="1.623" cy="1.623" r="1.623" transform="translate(372.136 139.551)"/>
    <circle id="Oval_Copy_229" data-name="Oval Copy 229" class="cls-1" cx="1.623" cy="1.623" r="1.623" transform="translate(372.136 511.687)"/>
    <circle id="Oval_Copy_60" data-name="Oval Copy 60" class="cls-1" cx="1.623" cy="1.623" r="1.623" transform="translate(0 325.619)"/>
    <circle id="Oval_Copy_230" data-name="Oval Copy 230" class="cls-1" cx="1.623" cy="1.623" r="1.623" transform="translate(0 697.755)"/>
    <circle id="Oval_Copy_117" data-name="Oval Copy 117" class="cls-1" cx="1.623" cy="1.623" r="1.623" transform="translate(372.136 325.619)"/>
    <circle id="Oval_Copy_231" data-name="Oval Copy 231" class="cls-1" cx="1.623" cy="1.623" r="1.623" transform="translate(372.136 697.755)"/>
    <circle id="Oval_Copy_32" data-name="Oval Copy 32" class="cls-1" cx="1.623" cy="1.623" r="1.623" transform="translate(186.068 139.551)"/>
    <circle id="Oval_Copy_232" data-name="Oval Copy 232" class="cls-1" cx="1.623" cy="1.623" r="1.623" transform="translate(186.068 511.687)"/>
    <circle id="Oval_Copy_118" data-name="Oval Copy 118" class="cls-1" cx="1.623" cy="1.623" r="1.623" transform="translate(558.204 139.551)"/>
    <circle id="Oval_Copy_233" data-name="Oval Copy 233" class="cls-1" cx="1.623" cy="1.623" r="1.623" transform="translate(558.204 511.687)"/>
    <circle id="Oval_Copy_61" data-name="Oval Copy 61" class="cls-1" cx="1.623" cy="1.623" r="1.623" transform="translate(186.068 325.619)"/>
    <circle id="Oval_Copy_234" data-name="Oval Copy 234" class="cls-1" cx="1.623" cy="1.623" r="1.623" transform="translate(186.068 697.755)"/>
    <circle id="Oval_Copy_119" data-name="Oval Copy 119" class="cls-1" cx="1.623" cy="1.623" r="1.623" transform="translate(558.204 325.619)"/>
    <circle id="Oval_Copy_235" data-name="Oval Copy 235" class="cls-1" cx="1.623" cy="1.623" r="1.623" transform="translate(558.204 697.755)"/>
    <circle id="Oval_Copy_18" data-name="Oval Copy 18" class="cls-1" cx="1.623" cy="1.623" r="1.623" transform="translate(93.034 139.551)"/>
    <circle id="Oval_Copy_236" data-name="Oval Copy 236" class="cls-1" cx="1.623" cy="1.623" r="1.623" transform="translate(93.034 511.687)"/>
    <circle id="Oval_Copy_120" data-name="Oval Copy 120" class="cls-1" cx="1.623" cy="1.623" r="1.623" transform="translate(465.17 139.551)"/>
    <circle id="Oval_Copy_237" data-name="Oval Copy 237" class="cls-1" cx="1.623" cy="1.623" r="1.623" transform="translate(465.17 511.687)"/>
    <circle id="Oval_Copy_62" data-name="Oval Copy 62" class="cls-1" cx="1.623" cy="1.623" r="1.623" transform="translate(93.034 325.619)"/>
    <circle id="Oval_Copy_238" data-name="Oval Copy 238" class="cls-1" cx="1.623" cy="1.623" r="1.623" transform="translate(93.034 697.755)"/>
    <circle id="Oval_Copy_121" data-name="Oval Copy 121" class="cls-1" cx="1.623" cy="1.623" r="1.623" transform="translate(465.17 325.619)"/>
    <circle id="Oval_Copy_239" data-name="Oval Copy 239" class="cls-1" cx="1.623" cy="1.623" r="1.623" transform="translate(465.17 697.755)"/>
    <circle id="Oval_Copy_33" data-name="Oval Copy 33" class="cls-1" cx="1.623" cy="1.623" r="1.623" transform="translate(279.102 139.551)"/>
    <circle id="Oval_Copy_240" data-name="Oval Copy 240" class="cls-1" cx="1.623" cy="1.623" r="1.623" transform="translate(279.102 511.687)"/>
    <circle id="Oval_Copy_122" data-name="Oval Copy 122" class="cls-1" cx="1.623" cy="1.623" r="1.623" transform="translate(651.238 139.551)"/>
    <circle id="Oval_Copy_241" data-name="Oval Copy 241" class="cls-1" cx="1.623" cy="1.623" r="1.623" transform="translate(651.238 511.687)"/>
    <circle id="Oval_Copy_63" data-name="Oval Copy 63" class="cls-1" cx="1.623" cy="1.623" r="1.623" transform="translate(279.102 325.619)"/>
    <circle id="Oval_Copy_242" data-name="Oval Copy 242" class="cls-1" cx="1.623" cy="1.623" r="1.623" transform="translate(279.102 697.755)"/>
    <circle id="Oval_Copy_123" data-name="Oval Copy 123" class="cls-1" cx="1.623" cy="1.623" r="1.623" transform="translate(651.238 325.619)"/>
    <circle id="Oval_Copy_243" data-name="Oval Copy 243" class="cls-1" cx="1.623" cy="1.623" r="1.623" transform="translate(651.238 697.755)"/>
    <circle id="Oval_Copy_11" data-name="Oval Copy 11" class="cls-1" cx="1.623" cy="1.623" r="1.623" transform="translate(46.517 139.551)"/>
    <circle id="Oval_Copy_244" data-name="Oval Copy 244" class="cls-1" cx="1.623" cy="1.623" r="1.623" transform="translate(46.517 511.687)"/>
    <circle id="Oval_Copy_124" data-name="Oval Copy 124" class="cls-1" cx="1.623" cy="1.623" r="1.623" transform="translate(418.653 139.551)"/>
    <circle id="Oval_Copy_245" data-name="Oval Copy 245" class="cls-1" cx="1.623" cy="1.623" r="1.623" transform="translate(418.653 511.687)"/>
    <circle id="Oval_Copy_64" data-name="Oval Copy 64" class="cls-1" cx="1.623" cy="1.623" r="1.623" transform="translate(46.517 325.619)"/>
    <circle id="Oval_Copy_246" data-name="Oval Copy 246" class="cls-1" cx="1.623" cy="1.623" r="1.623" transform="translate(46.517 697.755)"/>
    <circle id="Oval_Copy_125" data-name="Oval Copy 125" class="cls-1" cx="1.623" cy="1.623" r="1.623" transform="translate(418.653 325.619)"/>
    <circle id="Oval_Copy_247" data-name="Oval Copy 247" class="cls-1" cx="1.623" cy="1.623" r="1.623" transform="translate(418.653 697.755)"/>
    <circle id="Oval_Copy_34" data-name="Oval Copy 34" class="cls-1" cx="1.623" cy="1.623" r="1.623" transform="translate(232.585 139.551)"/>
    <circle id="Oval_Copy_248" data-name="Oval Copy 248" class="cls-1" cx="1.623" cy="1.623" r="1.623" transform="translate(232.585 511.687)"/>
    <circle id="Oval_Copy_126" data-name="Oval Copy 126" class="cls-1" cx="1.623" cy="1.623" r="1.623" transform="translate(604.721 139.551)"/>
    <circle id="Oval_Copy_249" data-name="Oval Copy 249" class="cls-1" cx="1.623" cy="1.623" r="1.623" transform="translate(604.721 511.687)"/>
    <circle id="Oval_Copy_65" data-name="Oval Copy 65" class="cls-1" cx="1.623" cy="1.623" r="1.623" transform="translate(232.585 325.619)"/>
    <circle id="Oval_Copy_250" data-name="Oval Copy 250" class="cls-1" cx="1.623" cy="1.623" r="1.623" transform="translate(232.585 697.755)"/>
    <circle id="Oval_Copy_127" data-name="Oval Copy 127" class="cls-1" cx="1.623" cy="1.623" r="1.623" transform="translate(604.721 325.619)"/>
    <circle id="Oval_Copy_251" data-name="Oval Copy 251" class="cls-1" cx="1.623" cy="1.623" r="1.623" transform="translate(604.721 697.755)"/>
    <circle id="Oval_Copy_19" data-name="Oval Copy 19" class="cls-1" cx="1.623" cy="1.623" r="1.623" transform="translate(139.551 139.551)"/>
    <circle id="Oval_Copy_252" data-name="Oval Copy 252" class="cls-1" cx="1.623" cy="1.623" r="1.623" transform="translate(139.551 511.687)"/>
    <circle id="Oval_Copy_128" data-name="Oval Copy 128" class="cls-1" cx="1.623" cy="1.623" r="1.623" transform="translate(511.687 139.551)"/>
    <circle id="Oval_Copy_253" data-name="Oval Copy 253" class="cls-1" cx="1.623" cy="1.623" r="1.623" transform="translate(511.687 511.687)"/>
    <circle id="Oval_Copy_66" data-name="Oval Copy 66" class="cls-1" cx="1.623" cy="1.623" r="1.623" transform="translate(139.551 325.619)"/>
    <circle id="Oval_Copy_254" data-name="Oval Copy 254" class="cls-1" cx="1.623" cy="1.623" r="1.623" transform="translate(139.551 697.755)"/>
    <circle id="Oval_Copy_129" data-name="Oval Copy 129" class="cls-1" cx="1.623" cy="1.623" r="1.623" transform="translate(511.687 325.619)"/>
    <circle id="Oval_Copy_255" data-name="Oval Copy 255" class="cls-1" cx="1.623" cy="1.623" r="1.623" transform="translate(511.687 697.755)"/>
    <circle id="Oval_Copy_35" data-name="Oval Copy 35" class="cls-1" cx="1.623" cy="1.623" r="1.623" transform="translate(325.619 139.551)"/>
    <circle id="Oval_Copy_256" data-name="Oval Copy 256" class="cls-1" cx="1.623" cy="1.623" r="1.623" transform="translate(325.619 511.687)"/>
    <circle id="Oval_Copy_130" data-name="Oval Copy 130" class="cls-1" cx="1.623" cy="1.623" r="1.623" transform="translate(697.755 139.551)"/>
    <circle id="Oval_Copy_257" data-name="Oval Copy 257" class="cls-1" cx="1.623" cy="1.623" r="1.623" transform="translate(697.755 511.687)"/>
    <circle id="Oval_Copy_67" data-name="Oval Copy 67" class="cls-1" cx="1.623" cy="1.623" r="1.623" transform="translate(325.619 325.619)"/>
    <circle id="Oval_Copy_258" data-name="Oval Copy 258" class="cls-1" cx="1.623" cy="1.623" r="1.623" transform="translate(325.619 697.755)"/>
    <circle id="Oval_Copy_131" data-name="Oval Copy 131" class="cls-1" cx="1.623" cy="1.623" r="1.623" transform="translate(697.755 325.619)"/>
    <circle id="Oval_Copy_259" data-name="Oval Copy 259" class="cls-1" cx="1.623" cy="1.623" r="1.623" transform="translate(697.755 697.755)"/>
  </g>
</svg>
