<svg width="24" height="24" viewBox="0 0 24 24" fill="none" xmlns="http://www.w3.org/2000/svg">
<path d="M3.98723 20.291L3.49023 23.25" stroke="#C98A6E" stroke-width="1.5" stroke-linecap="round" stroke-linejoin="round"/>
<path d="M11.9941 20.291L12.4901 23.25" stroke="#C98A6E" stroke-width="1.5" stroke-linecap="round" stroke-linejoin="round"/>
<path d="M5.04577 6.42999L2.50977 20.043L5.46777 20.54L7.65977 8.98199" stroke="#C98A6E" stroke-width="1.5" stroke-linecap="round" stroke-linejoin="round"/>
<path d="M8.32422 8.981L10.5152 20.54L13.4742 20.043L10.9502 6.5" stroke="#C98A6E" stroke-width="1.5" stroke-linecap="round" stroke-linejoin="round"/>
<path d="M10.991 6C10.9911 6.43636 10.8961 6.8675 10.7124 7.26334C10.5288 7.65919 10.2611 8.01022 9.92783 8.29194C9.5946 8.57366 9.20392 8.7793 8.78304 8.89451C8.36217 9.00972 7.92123 9.03173 7.49097 8.959C6.77434 8.81544 6.1311 8.42424 5.674 7.85395C5.21689 7.28367 4.97509 6.5707 4.99097 5.84V4.5C4.99097 4.30109 5.06999 4.11032 5.21064 3.96967C5.35129 3.82902 5.54206 3.75 5.74097 3.75H10.241C10.4399 3.75 10.6306 3.82902 10.7713 3.96967C10.912 4.11032 10.991 4.30109 10.991 4.5V6Z" stroke="#C98A6E" stroke-width="1.5" stroke-linecap="round" stroke-linejoin="round"/>
<path d="M7.99023 3.75V0.75" stroke="#C98A6E" stroke-width="1.5" stroke-linecap="round" stroke-linejoin="round"/>
<path d="M15.4902 23.25H19.9902C20.3881 23.25 20.7696 23.092 21.0509 22.8107C21.3322 22.5294 21.4902 22.1478 21.4902 21.75V2.25C21.4902 1.85218 21.3322 1.47064 21.0509 1.18934C20.7696 0.908035 20.3881 0.75 19.9902 0.75H15.4902C15.0924 0.75 14.7109 0.908035 14.4296 1.18934C14.1483 1.47064 13.9902 1.85218 13.9902 2.25V7.5" stroke="#C98A6E" stroke-width="1.5" stroke-linecap="round" stroke-linejoin="round"/>
<path d="M18.4902 5.25H21.4902" stroke="#C98A6E" stroke-width="1.5" stroke-linecap="round" stroke-linejoin="round"/>
<path d="M18.4902 9.75H21.4902" stroke="#C98A6E" stroke-width="1.5" stroke-linecap="round" stroke-linejoin="round"/>
<path d="M18.4902 14.25H21.4902" stroke="#C98A6E" stroke-width="1.5" stroke-linecap="round" stroke-linejoin="round"/>
<path d="M18.4902 18.75H21.4902" stroke="#C98A6E" stroke-width="1.5" stroke-linecap="round" stroke-linejoin="round"/>
</svg>
