<svg xmlns="http://www.w3.org/2000/svg" viewBox="0 0 24 23.5">
  <defs>
    <style>
      .cls-1 {
        fill: none;
        stroke: #c98a6e;
        stroke-linecap: round;
        stroke-linejoin: round;
        stroke-miterlimit: 10;
        stroke-width: 1.5px;
      }
    </style>
  </defs>
  <g id="headphones-customer-support-human" transform="translate(0.75 0.75)">
    <path id="Path" class="cls-1" d="M3.75,9H3A3,3,0,0,1,0,6V3A3,3,0,0,1,3,0h.75A.75.75,0,0,1,4.5.75v7.5A.75.75,0,0,1,3.75,9Z" transform="translate(0 8)"/>
    <path id="Path-2" data-name="Path" class="cls-1" d="M1.5,9H.75A.75.75,0,0,1,0,8.25V.75A.75.75,0,0,1,.75,0H1.5a3,3,0,0,1,3,3V6A3,3,0,0,1,1.5,9Z" transform="translate(18 8)"/>
    <path id="Path-3" data-name="Path" class="cls-1" d="M0,8.25A8.25,8.25,0,0,1,8.25,0h0A8.25,8.25,0,0,1,16.5,8.25" transform="translate(3)"/>
    <path id="Path-4" data-name="Path" class="cls-1" d="M0,3.75H2.25a3,3,0,0,0,3-3h0V0" transform="translate(14 17)"/>
    <path id="Path-5" data-name="Path" class="cls-1" d="M3,3H1.5A1.5,1.5,0,0,1,0,1.5H0A1.5,1.5,0,0,1,1.5,0H3A1.5,1.5,0,0,1,4.5,1.5h0A1.5,1.5,0,0,1,3,3Z" transform="translate(9 19)"/>
    <path id="Path-6" data-name="Path" class="cls-1" d="M0,0A4.454,4.454,0,0,0,6,0" transform="translate(8 14)"/>
    <path id="Path-7" data-name="Path" class="cls-1" d="M.5,0V1.312" transform="translate(7 9)"/>
    <path id="Path-8" data-name="Path" class="cls-1" d="M.5,0V1.312" transform="translate(13 9)"/>
  </g>
</svg>
