<svg width="122" height="24" viewBox="0 0 122 24" fill="none" xmlns="http://www.w3.org/2000/svg">
<path fill-rule="evenodd" clip-rule="evenodd" d="M58.3574 15.0707C58.3574 10.1557 62.2083 6.16223 66.9478 6.16223C71.6873 6.16223 75.5381 10.1557 75.5381 15.0707C75.5381 19.9858 71.6873 23.9792 66.9478 23.9792C62.2083 23.9792 58.3574 19.9858 58.3574 15.0707ZM61.8564 15.0732C61.8564 17.9915 64.1521 20.353 66.9477 20.353C69.7433 20.353 72.0205 17.9915 72.039 15.0732C72.039 12.1549 69.7433 9.79333 66.9477 9.79333C64.1336 9.79333 61.8564 12.1741 61.8564 15.0732Z" fill="black"/>
<path d="M95.6997 20.3508C92.9042 20.3508 90.6085 17.9893 90.6085 15.071C90.6085 12.1719 92.8856 9.79119 95.6997 9.79119C97.3845 9.79119 98.9766 10.6552 99.9208 12.1143L102.827 10.0792C101.217 7.62166 98.5693 6.14331 95.6997 6.14331C90.9602 6.14331 87.1094 10.1368 87.1094 15.0518C87.1094 19.9669 90.9602 23.9603 95.6997 23.9603C98.7175 23.9603 101.55 22.29 103.087 19.6021L100.069 17.7397C99.1618 19.3525 97.4955 20.3508 95.6997 20.3508Z" fill="black"/>
<path d="M81.8867 0H78.3691V23.2888H81.8867V9.81088H85.6265V6.163H81.8867V0Z" fill="black"/>
<path d="M114.657 6.163C112.176 6.163 110.435 7.52615 109.51 8.48612V0H105.992V16.1467V23.2888H109.51V22.8089V15.6475C109.51 11.6348 111.75 9.79168 113.953 9.79168C116.156 9.79168 117.508 11.654 117.508 13.9387V23.2888H121.025V13.5164C121.025 9.2157 118.804 6.163 114.657 6.163Z" fill="black"/>
<path d="M49.0082 6.16211C46.5273 6.16211 44.787 7.52527 43.8614 8.48523V6.68049H40.3438V16.1458V23.288H43.8614V22.808V15.6466C43.8614 11.6339 46.1015 9.79079 48.3046 9.79079C50.5078 9.79079 51.8593 11.6531 51.8593 13.9379V23.288H55.3769V13.5155C55.3583 9.21481 53.1552 6.16211 49.0082 6.16211Z" fill="black"/>
<path d="M24.3455 24C23.6605 24 22.994 23.712 22.4941 23.1744L9.16427 8.44851C8.14602 7.31574 6.92412 7.69973 6.57236 7.85333C6.2206 7.98772 5.09126 8.5829 5.09126 10.1189V21.3697C5.09126 22.8288 3.94341 24 2.55489 24C1.16636 24 0 22.8096 0 21.3505V10.0997C0 6.91256 1.85137 4.09025 4.70248 2.91909C7.55358 1.74792 10.7564 2.4967 12.867 4.81982L26.1969 19.5457C27.1596 20.6017 27.104 22.2721 26.0858 23.2704C25.6044 23.7504 24.975 24 24.3455 24Z" fill="url(#paint0_linear)"/>
<path d="M24.343 7.64149C25.7438 7.64149 26.8794 6.46386 26.8794 5.01117C26.8794 3.55849 25.7438 2.38086 24.343 2.38086C22.9422 2.38086 21.8066 3.55849 21.8066 5.01117C21.8066 6.46386 22.9422 7.64149 24.343 7.64149Z" fill="url(#paint1_linear)"/>
<defs>
<linearGradient id="paint0_linear" x1="0" y1="24.001" x2="26.8925" y2="24.001" gradientUnits="userSpaceOnUse">
<stop stop-color="#FFBF8F"/>
<stop offset="1" stop-color="#FFBF8F"/>
</linearGradient>
<linearGradient id="paint1_linear" x1="21.8026" y1="7.65363" x2="26.89" y2="7.65363" gradientUnits="userSpaceOnUse">
<stop stop-color="#FFBF8F"/>
<stop offset="1" stop-color="#FFBF8F"/>
</linearGradient>
</defs>
</svg>
