<?xml version="1.0" encoding="UTF-8"?>
<svg width="1370px" height="279px" viewBox="0 0 1370 279" version="1.1" xmlns="http://www.w3.org/2000/svg" xmlns:xlink="http://www.w3.org/1999/xlink">
    <!-- Generator: Sketch 52 (66869) - http://www.bohemiancoding.com/sketch -->
    <title>notchlogo</title>
    <desc>Created with Sketch.</desc>
    <defs>
        <path d="M373,274.487871 L373,82.722372 L391.462963,82.722372 L391.462963,118.443396 C404.273998,95.8827493 425.751323,78.2102426 460.793273,78.2102426 C509.399849,78.2102426 537.659486,111.299191 537.659486,157.172507 L537.659486,274.487871 L519.196523,274.487871 L519.196523,160.556604 C519.196523,121.075472 496.965608,95.1307278 458.155707,95.1307278 C420.47619,95.1307278 391.462963,123.707547 391.462963,163.56469 L391.462963,274.487871 L373,274.487871 Z M689.131141,279 C632.235072,279 590.787604,233.126685 590.787604,179.357143 L590.787604,178.605121 C590.787604,124.83558 632.611867,78.2102426 689.884732,78.2102426 C746.780801,78.2102426 788.228269,124.083558 788.228269,177.8531 L788.228269,178.605121 C788.228269,232.374663 746.404006,279 689.131141,279 Z M689.884732,261.703504 C735.476946,261.703504 768.258125,224.478437 768.258125,179.357143 L768.258125,178.605121 C768.258125,132.355795 733.592971,95.5067385 689.131141,95.5067385 C643.538927,95.5067385 610.757748,132.731806 610.757748,177.8531 L610.757748,178.605121 C610.757748,224.854447 645.422902,261.703504 689.884732,261.703504 Z M909.179516,277.871968 C879.412698,277.871968 855.297808,261.703504 855.297808,225.230458 L855.297808,99.6428571 L827.414966,99.6428571 L827.414966,82.722372 L855.297808,82.722372 L855.297808,21.4326146 L873.760771,21.4326146 L873.760771,82.722372 L941.207105,82.722372 L941.207105,99.6428571 L873.760771,99.6428571 L873.760771,223.350404 C873.760771,250.799191 889.962963,260.575472 912.193878,260.575472 C921.613757,260.575472 929.526455,258.695418 940.453515,253.807278 L940.453515,271.103774 C930.656841,275.615903 921.236961,277.871968 909.179516,277.871968 Z M1074.96939,279 C1019.5805,279 977.002646,233.126685 977.002646,179.357143 L977.002646,178.605121 C977.002646,124.83558 1019.95729,78.2102426 1074.96939,78.2102426 C1111.14172,78.2102426 1133.74943,94.754717 1151.8356,113.555256 L1138.64777,127.091644 C1122.06878,110.171159 1103.22902,95.5067385 1074.59259,95.5067385 C1030.88435,95.5067385 996.972789,131.979784 996.972789,177.8531 L996.972789,178.605121 C996.972789,224.854447 1032.01474,261.703504 1076.09977,261.703504 C1103.22902,261.703504 1124.32955,247.791105 1140.53175,229.742588 L1153.34278,241.022911 C1133.74943,263.207547 1110.38813,279 1074.96939,279 Z M1205.34051,274.487871 L1205.34051,0 L1223.80348,0 L1223.80348,118.443396 C1236.61451,95.8827493 1258.09184,78.2102426 1293.13379,78.2102426 C1341.74036,78.2102426 1370,111.299191 1370,157.172507 L1370,274.487871 L1351.53704,274.487871 L1351.53704,160.556604 C1351.53704,121.075472 1329.30612,95.1307278 1290.49622,95.1307278 C1252.8167,95.1307278 1223.80348,123.707547 1223.80348,163.56469 L1223.80348,274.487871 L1205.34051,274.487871 Z" id="path-1"></path>
    </defs>
    <g id="Page-1" stroke="none" stroke-width="1" fill="none" fill-rule="evenodd">
        <g id="notchlogo">
            <g id="notch" fill="#000000">
                <use xlink:href="#path-1"></use>
                <use xlink:href="#path-1"></use>
            </g>
            <g id="Group" transform="translate(0.000000, 123.000000)">
                <path d="M97.3379824,6.83091364 C89.0701486,-1.49549437 75.7288713,-1.49549437 67.4610375,6.83091364 L6.20390531,68.5220275 C-2.06392848,76.8484355 -2.06392848,90.2842303 6.20390531,98.6106383 C14.4717391,106.937046 27.8130164,106.937046 36.0808502,98.6106383 L97.3379824,36.9195244 C105.605816,28.5931164 105.605816,15.0942428 97.3379824,6.83091364" id="Path" fill="#C69274"></path>
                <path d="M228.120081,6.83091364 C219.852247,-1.49549437 206.51097,-1.49549437 198.243136,6.83091364 L136.986004,68.5220275 C128.71817,76.8484355 128.71817,90.2842303 136.986004,98.6106383 C145.253837,106.937046 158.595115,106.937046 166.862948,98.6106383 L228.120081,36.9195244 C236.387914,28.5931164 236.387914,15.0942428 228.120081,6.83091364" id="Path" fill="#000000"></path>
            </g>
        </g>
    </g>
</svg>