<svg width="1077" height="837" viewBox="0 0 1077 837" fill="none" xmlns="http://www.w3.org/2000/svg">
<g opacity="1">
<path d="M971.802 832.3C944.571 832.3 918.076 821.27 898.205 800.681L368.306 236.687C327.827 193.302 279.253 208.009 265.27 213.892C251.286 219.039 206.392 241.834 206.392 300.66V731.56C206.392 787.445 160.762 832.3 105.564 832.3C50.3662 832.3 4 786.71 4 730.825V299.925C4 177.861 77.5971 69.7678 190.937 24.913C304.276 -19.9418 431.599 8.73584 515.5 97.7102L1045.4 661.705C1083.67 702.147 1081.46 766.121 1040.98 804.358C1021.85 822.741 996.825 832.3 971.802 832.3Z" fill="#FFBF8F" stroke="#FFBF8F" stroke-width="8"/>
<path d="M965.907 217.755C1024.93 217.755 1072.78 169.904 1072.78 110.877C1072.78 51.8506 1024.93 4 965.907 4C906.88 4 859.029 51.8506 859.029 110.877C859.029 169.904 906.88 217.755 965.907 217.755Z" fill="#FFBF8F" stroke="#FFBF8F" stroke-width="8"/>
</g>
</svg>
