<svg xmlns="http://www.w3.org/2000/svg" viewBox="0 0 24.5 24">
  <defs>
    <style>
      .cls-1 {
        fill: none;
        stroke: #c98a6e;
        stroke-linecap: round;
        stroke-linejoin: round;
        stroke-miterlimit: 10;
        stroke-width: 1.5px;
      }
    </style>
  </defs>
  <g id="office-file-sheet-alternate" transform="translate(0.75 0.75)">
    <path id="Path" class="cls-1" d="M.5,0V9" transform="translate(8 10)"/>
    <path id="Path-2" data-name="Path" class="cls-1" d="M0,.5H15" transform="translate(4 14)"/>
    <path id="Path-3" data-name="Path" class="cls-1" d="M22.061,4.811A1.5,1.5,0,0,1,22.5,5.872V20.251A2.25,2.25,0,0,1,20.251,22.5h-18A2.25,2.25,0,0,1,0,20.251v-18A2.251,2.251,0,0,1,2.251,0H16.629A1.5,1.5,0,0,1,17.69.44Z"/>
    <path id="Path-4" data-name="Path" class="cls-1" d="M0,0V4.5A1.5,1.5,0,0,0,1.5,6H6" transform="translate(17)"/>
    <path id="Path-5" data-name="Path" class="cls-1" d="M15,8.249a.75.75,0,0,1-.75.75H.75A.75.75,0,0,1,0,8.249V0H14.25A.75.75,0,0,1,15,.75Z" transform="translate(4 10)"/>
    <path id="Path-6" data-name="Path" class="cls-1" d="M9,3H0V.75A.75.75,0,0,1,.75,0H9" transform="translate(4 7)"/>
  </g>
</svg>
