<svg xmlns="http://www.w3.org/2000/svg" viewBox="0 0 24.409 23.864">
  <defs>
    <style>
      .cls-1 {
        fill: none;
        stroke: #c98a6e;
        stroke-linecap: round;
        stroke-linejoin: round;
        stroke-miterlimit: 10;
        stroke-width: 1.5px;
      }
    </style>
  </defs>
  <g id="presentation-projector-screen-budget-analytics" transform="translate(0.205 -0.068)">
    <rect id="Rectangle" class="cls-1" width="22.909" height="3.273" rx="0.75" transform="translate(0.545 0.818)"/>
    <rect id="Rectangle-2" data-name="Rectangle" class="cls-1" width="19.636" height="14.727" transform="translate(2.182 4.091)"/>
    <path id="Path" class="cls-1" d="M.545,3.273V0" transform="translate(11.455 18.818)"/>
    <path id="Path-2" data-name="Path" class="cls-1" d="M0,.545H22.909" transform="translate(0.545 18.273)"/>
    <path id="Path-3" data-name="Path" class="cls-1" d="M3.273,1.091C3.273.489,2.54,0,1.636,0S0,.489,0,1.091" transform="translate(10.364 22.091)"/>
    <path id="Path-4" data-name="Path" class="cls-1" d="M.182,5.276a1.916,1.916,0,0,0,1.659.873A1.709,1.709,0,0,0,3.68,4.609,1.709,1.709,0,0,0,1.841,3.076,1.709,1.709,0,0,1,0,1.541,1.711,1.711,0,0,1,1.841.006,1.917,1.917,0,0,1,3.5.879" transform="translate(6.029 8.379)"/>
    <path id="Path-5" data-name="Path" class="cls-1" d="M.545.034V1.057" transform="translate(7.325 14.488)"/>
    <path id="Path-6" data-name="Path" class="cls-1" d="M.545.034V1.057" transform="translate(7.325 7.328)"/>
    <path id="Path-7" data-name="Path" class="cls-1" d="M.545,3.273V0" transform="translate(13.091 12.273)"/>
    <path id="Path-8" data-name="Path" class="cls-1" d="M.545,6.545V0" transform="translate(16.364 9)"/>
  </g>
</svg>
