<svg width="24" height="24" viewBox="0 0 24 24" fill="none" xmlns="http://www.w3.org/2000/svg">
<g clip-path="url(#clip0)">
<path d="M4.59101 22.542C4.16905 22.964 3.59675 23.201 3.00001 23.201C2.40327 23.201 1.83097 22.964 1.40901 22.542C0.987054 22.12 0.75 21.5477 0.75 20.951C0.75 20.3543 0.987054 19.782 1.40901 19.36L7.77301 13L10.955 16.182L4.59101 22.542Z" stroke="#C98A6E" stroke-width="1.5" stroke-linecap="round" stroke-linejoin="round"/>
<path d="M18.3783 5.57199L9.36328 14.587" stroke="#C98A6E" stroke-width="1.5" stroke-linecap="round" stroke-linejoin="round"/>
<path d="M20.5001 5.57199C20.2187 5.85325 19.8371 6.01121 19.4392 6.01111C19.0414 6.01102 18.6598 5.85288 18.3786 5.57149C18.0973 5.29009 17.9394 4.90849 17.9395 4.51063C17.9395 4.11278 18.0977 3.73125 18.3791 3.44999L21.0311 0.799988L23.1521 2.91999L20.5001 5.57199Z" stroke="#C98A6E" stroke-width="1.5" stroke-linecap="round" stroke-linejoin="round"/>
<path d="M10.49 8.32L8.2 6.025C8.46656 5.34629 8.52935 4.60457 8.38068 3.89071C8.23201 3.17685 7.87834 2.52187 7.363 2.006C6.7597 1.40696 5.96888 1.03344 5.123 0.947998C5.48205 1.52181 5.636 2.20039 5.5597 2.87297C5.48341 3.54555 5.18138 4.17241 4.70292 4.65122C4.22445 5.13003 3.59782 5.43252 2.92529 5.5093C2.25277 5.58609 1.57408 5.43264 1 5.074C1.05971 5.64533 1.25089 6.19509 1.55856 6.68019C1.86623 7.1653 2.28204 7.57258 2.77341 7.87014C3.26479 8.16769 3.81838 8.34744 4.39083 8.3953C4.96328 8.44316 5.53904 8.35783 6.073 8.146L7.649 9.722" stroke="#C98A6E" stroke-width="1.5" stroke-linecap="round" stroke-linejoin="round"/>
<path d="M14.2363 16.31L16.0113 18.084C15.6966 18.886 15.6676 19.7719 15.9293 20.5928C16.191 21.4136 16.7273 22.1193 17.4481 22.5913C18.1689 23.0632 19.0302 23.2725 19.8872 23.184C20.7442 23.0956 21.5446 22.7147 22.1538 22.1055C22.763 21.4963 23.1439 20.6959 23.2324 19.8389C23.3208 18.9819 23.1115 18.1206 22.6396 17.3998C22.1677 16.679 21.462 16.1426 20.6411 15.881C19.8203 15.6193 18.9343 15.6483 18.1323 15.963L15.6213 13.452" stroke="#C98A6E" stroke-width="1.5" stroke-linecap="round" stroke-linejoin="round"/>
<path d="M19.2347 19.186C19.2871 19.1335 19.3539 19.0977 19.4267 19.0832C19.4994 19.0687 19.5748 19.0761 19.6434 19.1045C19.7119 19.1329 19.7705 19.1809 19.8118 19.2426C19.853 19.3043 19.875 19.3768 19.875 19.451C19.875 19.5252 19.853 19.5977 19.8118 19.6594C19.7705 19.7211 19.7119 19.7691 19.6434 19.7975C19.5748 19.8259 19.4994 19.8333 19.4267 19.8187C19.3539 19.8042 19.2871 19.7685 19.2347 19.716C19.1644 19.6457 19.125 19.5504 19.125 19.451C19.125 19.3516 19.1644 19.2563 19.2347 19.186" stroke="#C98A6E" stroke-width="1.5" stroke-linecap="round" stroke-linejoin="round"/>
</g>
<defs>
<clipPath id="clip0">
<rect width="24" height="24" fill="white"/>
</clipPath>
</defs>
</svg>
