<svg width="24" height="24" viewBox="0 0 24 24" fill="none" xmlns="http://www.w3.org/2000/svg">
<path d="M0.765625 13.222L3.70263 14.709" stroke="#C98A6E" stroke-width="1.5" stroke-linecap="round" stroke-linejoin="round"/>
<path d="M0.859375 9.234L3.67137 10.74" stroke="#C98A6E" stroke-width="1.5" stroke-linecap="round" stroke-linejoin="round"/>
<path d="M2.04492 5.918L3.73392 6.959" stroke="#C98A6E" stroke-width="1.5" stroke-linecap="round" stroke-linejoin="round"/>
<path d="M10.8594 5.151L19.1094 9.366" stroke="#C98A6E" stroke-width="1.5" stroke-linecap="round" stroke-linejoin="round"/>
<path d="M14.0624 3.514L7.8744 6.676C7.5294 6.85496 7.24044 7.12562 7.03931 7.45818C6.83818 7.79075 6.73268 8.17235 6.7344 8.561V15.44C6.73277 15.8288 6.83843 16.2104 7.03974 16.543C7.24105 16.8756 7.53021 17.1462 7.8754 17.325L14.0624 20.486C14.3479 20.6324 14.6641 20.7087 14.9849 20.7087C15.3057 20.7087 15.6219 20.6324 15.9074 20.486L22.0944 17.325C22.4395 17.1461 22.7285 16.8755 22.9296 16.5429C23.1308 16.2103 23.2362 15.8287 23.2344 15.44V8.561C23.2363 8.1723 23.1309 7.79061 22.9298 7.458C22.7286 7.1254 22.4395 6.85479 22.0944 6.676L15.9074 3.514C15.6218 3.36811 15.3056 3.29204 14.9849 3.29204C14.6642 3.29204 14.348 3.36811 14.0624 3.514V3.514Z" stroke="#C98A6E" stroke-width="1.5" stroke-linecap="round" stroke-linejoin="round"/>
<path d="M22.9075 7.425L14.9835 11.473L7.06055 7.425" stroke="#C98A6E" stroke-width="1.5" stroke-linecap="round" stroke-linejoin="round"/>
<path d="M15 11V20.236" stroke="#C98A6E" stroke-width="1.5" stroke-linecap="round" stroke-linejoin="round"/>
<path d="M19.1094 9.366V12.278" stroke="#C98A6E" stroke-width="1.5" stroke-linecap="round" stroke-linejoin="round"/>
</svg>
