<svg width="30" height="30" viewBox="0 0 30 30" fill="none" xmlns="http://www.w3.org/2000/svg">
<path d="M29.4724 16.115C29.4632 16.0357 29.4413 15.9585 29.4074 15.8862C29.3986 15.87 29.4074 15.8512 29.3924 15.835L27.1486 12.085C26.9642 11.7801 26.7044 11.5279 26.3941 11.3528C26.0838 11.1776 25.7337 11.0854 25.3774 11.085H20.9061V10.4712C20.9061 9.57614 20.5505 8.7177 19.9176 8.08476C19.2847 7.45183 18.4262 7.09625 17.5311 7.09625H11.6499C11.3252 6.17772 10.772 5.35694 10.0425 4.71122C9.313 4.0655 8.43114 3.61608 7.47999 3.40529C6.52883 3.1945 5.53967 3.22927 4.60566 3.50633C3.67165 3.78339 2.82353 4.29362 2.14117 4.98898C1.4588 5.68433 0.964653 6.54192 0.705253 7.48099C0.445854 8.42006 0.42974 9.4097 0.658429 10.3567C0.887118 11.3037 1.35308 12.177 2.01245 12.8942C2.67181 13.6114 3.50287 14.1489 4.42736 14.4562V23.5C4.42736 23.6989 4.50638 23.8897 4.64703 24.0303C4.78769 24.171 4.97845 24.25 5.17736 24.25H7.24986C7.41532 24.9546 7.81403 25.5826 8.3813 26.0321C8.94857 26.4816 9.6511 26.7262 10.3749 26.7262C11.0986 26.7262 11.8012 26.4816 12.3684 26.0321C12.9357 25.5826 13.3344 24.9546 13.4999 24.25H20.1474H20.1599H21.3336C21.497 24.9564 21.8949 25.5866 22.4624 26.0378C23.0299 26.4891 23.7336 26.7347 24.4586 26.7347C25.1837 26.7347 25.8873 26.4891 26.4548 26.0378C27.0223 25.5866 27.4202 24.9564 27.5836 24.25H28.7499C28.9488 24.25 29.1395 24.171 29.2802 24.0303C29.4208 23.8897 29.4999 23.6989 29.4999 23.5V16.24C29.4944 16.1976 29.4852 16.1558 29.4724 16.115ZM1.99986 9.025C1.99986 8.18443 2.24912 7.36273 2.71612 6.66383C3.18311 5.96492 3.84687 5.42018 4.62346 5.09851C5.40004 4.77684 6.25458 4.69267 7.079 4.85666C7.90342 5.02065 8.66069 5.42542 9.25507 6.0198C9.84944 6.61417 10.2542 7.37145 10.4182 8.19587C10.5822 9.02028 10.498 9.87482 10.1764 10.6514C9.85468 11.428 9.30995 12.0917 8.61104 12.5587C7.91213 13.0257 7.09043 13.275 6.24986 13.275C5.1234 13.2727 4.04374 12.8242 3.24721 12.0276C2.45068 11.2311 2.00218 10.1515 1.99986 9.025ZM12.0886 23.525C12.0833 23.9781 11.899 24.4107 11.5758 24.7282C11.2526 25.0458 10.8168 25.2226 10.3637 25.22C9.91062 25.2173 9.47698 25.0355 9.15751 24.7141C8.83805 24.3928 8.65873 23.9581 8.65873 23.505C8.65873 23.0519 8.83805 22.6172 9.15751 22.2958C9.47698 21.9745 9.91062 21.7927 10.3637 21.79C10.8168 21.7874 11.2526 21.9642 11.5758 22.2817C11.899 22.5993 12.0833 23.0319 12.0886 23.485V23.505V23.525ZM19.4074 11.8175V11.8362V22.7562H13.4999C13.3334 22.0525 12.9343 21.4256 12.3671 20.977C11.8 20.5283 11.098 20.2843 10.3749 20.2843C9.65172 20.2843 8.94975 20.5283 8.38261 20.977C7.81546 21.4256 7.41634 22.0525 7.24986 22.7562H5.92861V14.75C6.03861 14.7562 6.14236 14.7825 6.25361 14.7825C7.7778 14.7799 9.2388 14.1732 10.3166 13.0954C11.3943 12.0177 12.001 10.5567 12.0036 9.0325C12.0036 8.885 11.9711 8.74625 11.9599 8.60125H17.5249C18.0221 8.60125 18.4991 8.79879 18.8507 9.15042C19.2023 9.50205 19.3999 9.97897 19.3999 10.4762L19.4074 11.8175ZM20.9074 12.585H25.3749C25.4725 12.5853 25.5684 12.6109 25.6532 12.6594C25.7379 12.7078 25.8087 12.7773 25.8586 12.8612L27.4211 15.4687H20.9061L20.9074 12.585ZM24.4499 25.2287C24.1097 25.2287 23.7772 25.1279 23.4944 24.939C23.2116 24.75 22.9911 24.4815 22.8609 24.1673C22.7307 23.853 22.6966 23.5073 22.7628 23.1737C22.8291 22.84 22.9928 22.5336 23.2332 22.293C23.4736 22.0524 23.78 21.8885 24.1135 21.8219C24.4471 21.7554 24.7929 21.7893 25.1072 21.9193C25.4215 22.0493 25.6902 22.2696 25.8794 22.5523C26.0685 22.8349 26.1696 23.1674 26.1699 23.5075C26.1699 23.9641 25.9886 24.4021 25.6658 24.725C25.343 25.048 24.9052 25.2297 24.4486 25.23L24.4499 25.2287ZM27.9999 22.7587H27.5849C27.4162 22.0553 27.0155 21.4291 26.4475 20.9811C25.8794 20.5331 25.177 20.2895 24.4536 20.2895C23.7302 20.2895 23.0278 20.5331 22.4598 20.9811C21.8917 21.4291 21.491 22.0553 21.3224 22.7587H20.9111V16.9712H27.9999V22.7587ZM7.83861 10.2587H6.06111C5.8622 10.2587 5.67144 10.1797 5.53078 10.0391C5.39013 9.89843 5.31111 9.70766 5.31111 9.50875V7.33125C5.31111 7.13234 5.39013 6.94157 5.53078 6.80092C5.67144 6.66027 5.8622 6.58125 6.06111 6.58125C6.26003 6.58125 6.45079 6.66027 6.59144 6.80092C6.7321 6.94157 6.81111 7.13234 6.81111 7.33125V8.76625H7.83236C7.93085 8.76625 8.02838 8.78565 8.11938 8.82334C8.21037 8.86103 8.29305 8.91628 8.36269 8.98592C8.43234 9.05556 8.48758 9.13824 8.52527 9.22924C8.56296 9.32023 8.58236 9.41776 8.58236 9.51625C8.58236 9.61474 8.56296 9.71227 8.52527 9.80326C8.48758 9.89426 8.43234 9.97693 8.36269 10.0466C8.29305 10.1162 8.21037 10.1715 8.11938 10.2092C8.02838 10.2468 7.93085 10.2662 7.83236 10.2662L7.83861 10.2587Z" fill="#C98A6E"/>
</svg>
