<svg xmlns="http://www.w3.org/2000/svg" width="45" height="46" viewBox="0 0 45 46">
    <g fill="#B9684C" fill-rule="evenodd">
        <path d="M24.813 25.407c0 1.875-2.813 1.875-2.813 0 0-1.876 2.813-1.876 2.813 0M22.626 22.704c-.777 0-1.406-.63-1.406-1.407 0-1.872 1.656-3.295 3.273-4.443.503-.357 1.058-1.54.749-2.51-.308-.958-1.526-1.53-2.526-1.53h-.002c-1.097 0-2.457.51-2.988 1.94a1.407 1.407 0 0 1-2.637-.982C17.94 11.482 20.148 10 22.714 10h.004c2.03 0 4.47 1.195 5.204 3.482.709 2.21-.383 4.66-1.8 5.664-1.886 1.338-2.09 1.951-2.09 2.151 0 .777-.629 1.407-1.406 1.407z"/>
        <path d="M35.156 45.044a1.406 1.406 0 0 0 1.392-1.607l-1.285-8.993C41.212 31.27 45 25.044 45 18.302 45 8.211 36.79 0 26.696 0h-8.394C8.211 0 0 8.21 0 18.302c0 10.092 8.21 18.305 18.304 18.305h6.22l9.732 8.112c.257.216.579.325.9.325zm-8.46-42.232c8.543 0 15.491 6.949 15.491 15.49 0 6.001-3.552 11.52-9.049 14.06-.564.26-.89.86-.801 1.476l.91 6.377-7.316-6.098a1.422 1.422 0 0 0-.9-.323h-6.727c-8.543 0-15.491-6.949-15.491-15.492 0-8.543 6.948-15.49 15.491-15.49h8.392z"/>
    </g>
</svg>
