<svg xmlns="http://www.w3.org/2000/svg" width="100%" height="700" viewBox="0 0 1440 700">
    <defs>
        <linearGradient id="a" x1="100%" x2="0%" y1="100%" y2="0%">
            <stop offset="0%" stop-color="#6EEDF7"/>
            <stop offset="100%" stop-color="#043779"/>
        </linearGradient>
        <linearGradient id="b" x1="49.38%" x2="49.38%" y1="99.38%" y2=".62%">
            <stop offset="0%" stop-color="#FFF" stop-opacity=".2"/>
            <stop offset="100%" stop-color="#FFF" stop-opacity="0"/>
        </linearGradient>
        <linearGradient id="c" x1="0%" x2="98.76%" y1="50%" y2="50%">
            <stop offset="0%" stop-color="#FFF" stop-opacity=".2"/>
            <stop offset="100%" stop-color="#FFF" stop-opacity="0"/>
        </linearGradient>
    </defs>
    <g fill="none" fill-rule="evenodd">
        <path fill="url(#a)" d="M0 0h1440v700L0 559.09z"/>
        <path fill="url(#b)" d="M0 0h1440l-159 358H159z" opacity=".4"/>
        <g transform="translate(1114 30)">
            <rect width="168" height="5" x="50" y="211" fill="url(#c)" rx="2.5" transform="rotate(-90 134 213.5)"/>
            <rect width="168" height="5" x="115" y="127" fill="url(#c)" rx="2.5" transform="rotate(-90 199 129.5)"/>
            <path fill="url(#b)" d="M263.5 342c-1.38 0-2.5-1.67-2.5-3.743V94.743c0-2.067 1.11-3.743 2.5-3.743 1.38 0 2.5 1.67 2.5 3.743v243.514c0 2.067-1.11 3.743-2.5 3.743"/>
            <rect width="168" height="5" x="-81" y="82" fill="url(#c)" rx="2.5" transform="rotate(-90 3 84.5)"/>
            <rect width="168" height="5" x="-15" y="125" fill="url(#c)" rx="2.5" transform="rotate(-90 69 127.5)"/>
        </g>
        <g fill="url(#c)" transform="matrix(-1 0 0 1 327 0)">
            <rect width="168" height="5" x="50" y="211" rx="2.5" transform="rotate(-90 134 213.5)"/>
            <rect width="168" height="5" x="115" y="157" rx="2.5" transform="rotate(-90 199 159.5)"/>
            <rect width="168" height="5" x="180" y="250" rx="2.5" transform="rotate(-90 264 252.5)"/>
            <rect width="168" height="5" x="-81" y="82" rx="2.5" transform="rotate(-90 3 84.5)"/>
            <rect width="168" height="5" x="-15" y="145" rx="2.5" transform="rotate(-90 69 147.5)"/>
        </g>
    </g>
</svg>
