<?xml version="1.0" encoding="UTF-8"?>
<svg width="1440px" height="700px" viewBox="0 0 1440 700" version="1.1" xmlns="http://www.w3.org/2000/svg" xmlns:xlink="http://www.w3.org/1999/xlink">
    <!-- Generator: Sketch 48.2 (47327) - http://www.bohemiancoding.com/sketch -->
    <title>Group 5</title>
    <desc>Created with Sketch.</desc>
    <defs>
        <linearGradient x1="100.910496%" y1="101.608905%" x2="0%" y2="0%" id="linearGradient-1">
            <stop stop-color="#6EEDF7" offset="0%"></stop>
            <stop stop-color="#59C9DE" offset="1.22528643%"></stop>
            <stop stop-color="#51BBD5" offset="1.5828032%"></stop>
            <stop stop-color="#46A9C8" offset="5.96704515%"></stop>
            <stop stop-color="#3E9BBE" offset="19.0354586%"></stop>
            <stop stop-color="#3A93B9" offset="39.3733798%"></stop>
            <stop stop-color="#368DB5" offset="56.6452501%"></stop>
            <stop stop-color="#043779" offset="100%"></stop>
        </linearGradient>
        <linearGradient x1="3.061617e-15%" y1="50%" x2="98.7603635%" y2="50%" id="linearGradient-2">
            <stop stop-color="#FFFFFF" stop-opacity="0.2" offset="0%"></stop>
            <stop stop-color="#FFFFFF" stop-opacity="0" offset="100%"></stop>
        </linearGradient>
        <linearGradient x1="49.3801818%" y1="99.3801818%" x2="49.3801818%" y2="0.61981824%" id="linearGradient-3">
            <stop stop-color="#FFFFFF" stop-opacity="0.2" offset="0%"></stop>
            <stop stop-color="#FFFFFF" stop-opacity="0" offset="100%"></stop>
        </linearGradient>
    </defs>
    <g id="Kanbio-landing-page" stroke="none" stroke-width="1" fill="none" fill-rule="evenodd" transform="translate(0.000000, -840.000000)">
        <g id="Section" transform="translate(0.000000, 840.000000)">
            <g id="Group-5">
                <polygon id="How-it-works-bg" fill="url(#linearGradient-1)" points="0 0 230.017155 0 527.168843 0 856.242243 0 1165.52398 0 1440 0 1440 700 0 559.0901"></polygon>
                <rect id="Rectangle-3" fill="url(#linearGradient-2)" transform="translate(1248.000000, 243.500000) rotate(-90.000000) translate(-1248.000000, -243.500000) " x="1164" y="241" width="168" height="5" rx="2.5"></rect>
                <rect id="Rectangle-3-Copy" fill="url(#linearGradient-2)" transform="translate(1313.000000, 159.500000) rotate(-90.000000) translate(-1313.000000, -159.500000) " x="1229" y="157" width="168" height="5" rx="2.5"></rect>
                <path d="M1377.5,372 C1376.11929,372 1375,370.330805 1375,368.257045 L1375,124.742955 C1375,122.675778 1376.10966,121 1377.5,121 L1377.5,121 C1378.88071,121 1380,122.669195 1380,124.742955 L1380,368.257045 C1380,370.324222 1378.89034,372 1377.5,372" id="Rectangle-3-Copy-2" fill="url(#linearGradient-3)"></path>
                <rect id="Rectangle-3-Copy" fill="url(#linearGradient-2)" transform="translate(1117.000000, 114.500000) rotate(-90.000000) translate(-1117.000000, -114.500000) " x="1033" y="112" width="168" height="5" rx="2.5"></rect>
                <rect id="Rectangle-3-Copy-2" fill="url(#linearGradient-2)" transform="translate(1183.000000, 157.500000) rotate(-90.000000) translate(-1183.000000, -157.500000) " x="1099" y="155" width="168" height="5" rx="2.5"></rect>
                <rect id="Rectangle-3" fill="url(#linearGradient-2)" transform="translate(361.000000, 213.500000) rotate(-90.000000) translate(-361.000000, -213.500000) " x="277" y="211" width="168" height="5" rx="2.5"></rect>
                <rect id="Rectangle-3-Copy" fill="url(#linearGradient-2)" transform="translate(296.000000, 159.500000) rotate(-90.000000) translate(-296.000000, -159.500000) " x="212" y="157" width="168" height="5" rx="2.5"></rect>
                <rect id="Rectangle-3-Copy-2" fill="url(#linearGradient-2)" transform="translate(231.000000, 252.500000) rotate(-90.000000) translate(-231.000000, -252.500000) " x="147" y="250" width="168" height="5" rx="2.5"></rect>
                <rect id="Rectangle-3-Copy" fill="url(#linearGradient-2)" transform="translate(492.000000, 84.500000) rotate(-90.000000) translate(-492.000000, -84.500000) " x="408" y="82" width="168" height="5" rx="2.5"></rect>
                <rect id="Rectangle-3-Copy-2" fill="url(#linearGradient-2)" transform="translate(426.000000, 147.500000) rotate(-90.000000) translate(-426.000000, -147.500000) " x="342" y="145" width="168" height="5" rx="2.5"></rect>
            </g>
        </g>
    </g>
</svg>