<?xml version="1.0" encoding="utf-8"?>
<!-- Generator: Adobe Illustrator 19.1.0, SVG Export Plug-In . SVG Version: 6.00 Build 0)  -->
<svg version="1.1" id="Layer_1" xmlns="http://www.w3.org/2000/svg" xmlns:xlink="http://www.w3.org/1999/xlink" x="0px" y="0px"
	 viewBox="0 0 1000 1000" enable-background="new 0 0 1000 1000" xml:space="preserve">
<polygon points="659.6,376 572.2,597 530.3,504.2 588.2,376 527.6,376 500,437.1 472.4,376 411.8,376 469.7,504.2 427.8,597 
	340.4,376 282.1,376 397.7,668.6 456.1,668.6 500,571.3 543.9,668.6 543.9,668.6 543.9,668.6 602.3,668.6 717.9,376 "/>
<path d="M500,904C277.2,904,96,722.8,96,500S277.2,96,500,96c222.8,0,404,181.3,404,404S722.8,904,500,904z M500,150.4
	c-192.8,0-349.6,156.8-349.6,349.6c0,192.8,156.8,349.6,349.6,349.6c192.8,0,349.6-156.8,349.6-349.6
	C849.6,307.2,692.8,150.4,500,150.4z"/>
</svg>
